<svg width="25" height="28" viewBox="0 0 25 28" fill="none" xmlns="http://www.w3.org/2000/svg">
<g clip-path="url(#clip0_1_84)">
<path d="M22.6131 2.15637H2.03631C1.09345 2.15637 0.327377 2.93316 0.327377 3.88673V24.426C0.327377 25.3796 1.09345 26.1564 2.03631 26.1564H22.6131C23.5559 26.1564 24.3274 25.3796 24.3274 24.426V3.88673C24.3274 2.93316 23.5559 2.15637 22.6131 2.15637ZM7.58095 22.7278H4.02381V11.2742H7.58631V22.7278H7.58095ZM5.80238 9.70994C4.66131 9.70994 3.73988 8.78316 3.73988 7.64744C3.73988 6.51173 4.66131 5.58494 5.80238 5.58494C6.93809 5.58494 7.86488 6.51173 7.86488 7.64744C7.86488 8.78852 6.94345 9.70994 5.80238 9.70994ZM20.9149 22.7278H17.3577V17.1564C17.3577 15.8278 17.3309 14.1189 15.5095 14.1189C13.6559 14.1189 13.372 15.5653 13.372 17.0599V22.7278H9.81488V11.2742H13.2274V12.8385H13.2756C13.7524 11.9385 14.9149 10.9903 16.6452 10.9903C20.2452 10.9903 20.9149 13.3635 20.9149 16.4492V22.7278Z" fill="#9CA3AF"/>
</g>
<defs>
<clipPath id="clip0_1_84">
<rect width="24" height="27.4286" fill="white" transform="translate(0.327377 0.442139)"/>
</clipPath>
</defs>
</svg>
