<svg width="22" height="22" viewBox="0 0 22 22" fill="none" xmlns="http://www.w3.org/2000/svg">
<path d="M11.0024 5.72806C7.97381 5.72806 5.53095 8.15169 5.53095 11.1564C5.53095 14.1611 7.97381 16.5848 11.0024 16.5848C14.031 16.5848 16.4738 14.1611 16.4738 11.1564C16.4738 8.15169 14.031 5.72806 11.0024 5.72806ZM11.0024 14.6855C9.04524 14.6855 7.44523 13.1029 7.44523 11.1564C7.44523 9.20995 9.04047 7.62728 11.0024 7.62728C12.9643 7.62728 14.5595 9.20995 14.5595 11.1564C14.5595 13.1029 12.9595 14.6855 11.0024 14.6855ZM17.9738 5.50602C17.9738 6.20995 17.4024 6.77216 16.6976 6.77216C15.9881 6.77216 15.4214 6.20523 15.4214 5.50602C15.4214 4.8068 15.9929 4.23988 16.6976 4.23988C17.4024 4.23988 17.9738 4.8068 17.9738 5.50602ZM21.5976 6.79106C21.5167 5.09499 21.1262 3.59263 19.8738 2.35484C18.6262 1.11704 17.1119 0.729639 15.4024 0.6446C13.6405 0.545387 8.35952 0.545387 6.59762 0.6446C4.89285 0.724915 3.37857 1.11232 2.12619 2.35011C0.873806 3.58791 0.488092 5.09027 0.402377 6.78633C0.302377 8.53436 0.302377 13.7737 0.402377 15.5218C0.48333 17.2178 0.873806 18.7202 2.12619 19.958C3.37857 21.1958 4.88809 21.5832 6.59762 21.6682C8.35952 21.7674 13.6405 21.7674 15.4024 21.6682C17.1119 21.5879 18.6262 21.2005 19.8738 19.958C21.1214 18.7202 21.5119 17.2178 21.5976 15.5218C21.6976 13.7737 21.6976 8.53909 21.5976 6.79106ZM19.3214 17.3974C18.95 18.3233 18.231 19.0367 17.2929 19.41C15.8881 19.9627 12.5548 19.8352 11.0024 19.8352C9.45 19.8352 6.1119 19.958 4.7119 19.41C3.77857 19.0415 3.05952 18.3281 2.68333 17.3974C2.12619 16.0037 2.25476 12.6966 2.25476 11.1564C2.25476 9.61625 2.13095 6.30444 2.68333 4.91547C3.05476 3.98948 3.77381 3.2761 4.7119 2.90287C6.11666 2.35011 9.45 2.47767 11.0024 2.47767C12.5548 2.47767 15.8929 2.35484 17.2929 2.90287C18.2262 3.27137 18.9452 3.98476 19.3214 4.91547C19.8786 6.30917 19.75 9.61625 19.75 11.1564C19.75 12.6966 19.8786 16.0084 19.3214 17.3974Z" fill="#9CA3AF"/>
</svg>
